<svg viewBox="0 0 256 256" width="256" height="256" shape-rendering="crispEdges" xmlns="http://www.w3.org/2000/svg" version="1.1"><path fill="#fff" d="M0,0V256H256V0H0Z"/><path transform="matrix(6.0000,0,0,6.0000,41,41)" d="M0,0h1v1h-1v-1zM1,0h1v1h-1v-1zM2,0h1v1h-1v-1zM3,0h1v1h-1v-1zM4,0h1v1h-1v-1zM5,0h1v1h-1v-1zM6,0h1v1h-1v-1zM8,0h1v1h-1v-1zM10,0h1v1h-1v-1zM13,0h1v1h-1v-1zM14,0h1v1h-1v-1zM17,0h1v1h-1v-1zM18,0h1v1h-1v-1zM19,0h1v1h-1v-1zM20,0h1v1h-1v-1zM22,0h1v1h-1v-1zM23,0h1v1h-1v-1zM24,0h1v1h-1v-1zM25,0h1v1h-1v-1zM26,0h1v1h-1v-1zM27,0h1v1h-1v-1zM28,0h1v1h-1v-1zM0,1h1v1h-1v-1zM6,1h1v1h-1v-1zM9,1h1v1h-1v-1zM12,1h1v1h-1v-1zM13,1h1v1h-1v-1zM17,1h1v1h-1v-1zM18,1h1v1h-1v-1zM19,1h1v1h-1v-1zM20,1h1v1h-1v-1zM22,1h1v1h-1v-1zM28,1h1v1h-1v-1zM0,2h1v1h-1v-1zM2,2h1v1h-1v-1zM3,2h1v1h-1v-1zM4,2h1v1h-1v-1zM6,2h1v1h-1v-1zM9,2h1v1h-1v-1zM10,2h1v1h-1v-1zM12,2h1v1h-1v-1zM17,2h1v1h-1v-1zM18,2h1v1h-1v-1zM20,2h1v1h-1v-1zM22,2h1v1h-1v-1zM24,2h1v1h-1v-1zM25,2h1v1h-1v-1zM26,2h1v1h-1v-1zM28,2h1v1h-1v-1zM0,3h1v1h-1v-1zM2,3h1v1h-1v-1zM3,3h1v1h-1v-1zM4,3h1v1h-1v-1zM6,3h1v1h-1v-1zM8,3h1v1h-1v-1zM10,3h1v1h-1v-1zM11,3h1v1h-1v-1zM13,3h1v1h-1v-1zM15,3h1v1h-1v-1zM17,3h1v1h-1v-1zM18,3h1v1h-1v-1zM22,3h1v1h-1v-1zM24,3h1v1h-1v-1zM25,3h1v1h-1v-1zM26,3h1v1h-1v-1zM28,3h1v1h-1v-1zM0,4h1v1h-1v-1zM2,4h1v1h-1v-1zM3,4h1v1h-1v-1zM4,4h1v1h-1v-1zM6,4h1v1h-1v-1zM8,4h1v1h-1v-1zM9,4h1v1h-1v-1zM10,4h1v1h-1v-1zM11,4h1v1h-1v-1zM14,4h1v1h-1v-1zM15,4h1v1h-1v-1zM16,4h1v1h-1v-1zM17,4h1v1h-1v-1zM18,4h1v1h-1v-1zM19,4h1v1h-1v-1zM20,4h1v1h-1v-1zM22,4h1v1h-1v-1zM24,4h1v1h-1v-1zM25,4h1v1h-1v-1zM26,4h1v1h-1v-1zM28,4h1v1h-1v-1zM0,5h1v1h-1v-1zM6,5h1v1h-1v-1zM8,5h1v1h-1v-1zM13,5h1v1h-1v-1zM14,5h1v1h-1v-1zM15,5h1v1h-1v-1zM17,5h1v1h-1v-1zM19,5h1v1h-1v-1zM20,5h1v1h-1v-1zM22,5h1v1h-1v-1zM28,5h1v1h-1v-1zM0,6h1v1h-1v-1zM1,6h1v1h-1v-1zM2,6h1v1h-1v-1zM3,6h1v1h-1v-1zM4,6h1v1h-1v-1zM5,6h1v1h-1v-1zM6,6h1v1h-1v-1zM8,6h1v1h-1v-1zM10,6h1v1h-1v-1zM12,6h1v1h-1v-1zM14,6h1v1h-1v-1zM16,6h1v1h-1v-1zM18,6h1v1h-1v-1zM20,6h1v1h-1v-1zM22,6h1v1h-1v-1zM23,6h1v1h-1v-1zM24,6h1v1h-1v-1zM25,6h1v1h-1v-1zM26,6h1v1h-1v-1zM27,6h1v1h-1v-1zM28,6h1v1h-1v-1zM8,7h1v1h-1v-1zM10,7h1v1h-1v-1zM13,7h1v1h-1v-1zM15,7h1v1h-1v-1zM16,7h1v1h-1v-1zM17,7h1v1h-1v-1zM20,7h1v1h-1v-1zM0,8h1v1h-1v-1zM1,8h1v1h-1v-1zM2,8h1v1h-1v-1zM4,8h1v1h-1v-1zM6,8h1v1h-1v-1zM8,8h1v1h-1v-1zM11,8h1v1h-1v-1zM13,8h1v1h-1v-1zM21,8h1v1h-1v-1zM22,8h1v1h-1v-1zM23,8h1v1h-1v-1zM24,8h1v1h-1v-1zM25,8h1v1h-1v-1zM28,8h1v1h-1v-1zM0,9h1v1h-1v-1zM1,9h1v1h-1v-1zM2,9h1v1h-1v-1zM4,9h1v1h-1v-1zM7,9h1v1h-1v-1zM10,9h1v1h-1v-1zM13,9h1v1h-1v-1zM14,9h1v1h-1v-1zM16,9h1v1h-1v-1zM18,9h1v1h-1v-1zM21,9h1v1h-1v-1zM22,9h1v1h-1v-1zM24,9h1v1h-1v-1zM25,9h1v1h-1v-1zM26,9h1v1h-1v-1zM1,10h1v1h-1v-1zM2,10h1v1h-1v-1zM6,10h1v1h-1v-1zM7,10h1v1h-1v-1zM8,10h1v1h-1v-1zM9,10h1v1h-1v-1zM10,10h1v1h-1v-1zM14,10h1v1h-1v-1zM17,10h1v1h-1v-1zM18,10h1v1h-1v-1zM19,10h1v1h-1v-1zM20,10h1v1h-1v-1zM25,10h1v1h-1v-1zM26,10h1v1h-1v-1zM0,11h1v1h-1v-1zM1,11h1v1h-1v-1zM5,11h1v1h-1v-1zM7,11h1v1h-1v-1zM11,11h1v1h-1v-1zM13,11h1v1h-1v-1zM15,11h1v1h-1v-1zM17,11h1v1h-1v-1zM20,11h1v1h-1v-1zM21,11h1v1h-1v-1zM22,11h1v1h-1v-1zM23,11h1v1h-1v-1zM28,11h1v1h-1v-1zM5,12h1v1h-1v-1zM6,12h1v1h-1v-1zM12,12h1v1h-1v-1zM14,12h1v1h-1v-1zM16,12h1v1h-1v-1zM17,12h1v1h-1v-1zM21,12h1v1h-1v-1zM25,12h1v1h-1v-1zM26,12h1v1h-1v-1zM0,13h1v1h-1v-1zM2,13h1v1h-1v-1zM4,13h1v1h-1v-1zM5,13h1v1h-1v-1zM8,13h1v1h-1v-1zM12,13h1v1h-1v-1zM15,13h1v1h-1v-1zM18,13h1v1h-1v-1zM19,13h1v1h-1v-1zM20,13h1v1h-1v-1zM21,13h1v1h-1v-1zM22,13h1v1h-1v-1zM23,13h1v1h-1v-1zM24,13h1v1h-1v-1zM25,13h1v1h-1v-1zM26,13h1v1h-1v-1zM27,13h1v1h-1v-1zM0,14h1v1h-1v-1zM2,14h1v1h-1v-1zM3,14h1v1h-1v-1zM4,14h1v1h-1v-1zM5,14h1v1h-1v-1zM6,14h1v1h-1v-1zM7,14h1v1h-1v-1zM8,14h1v1h-1v-1zM9,14h1v1h-1v-1zM10,14h1v1h-1v-1zM11,14h1v1h-1v-1zM12,14h1v1h-1v-1zM14,14h1v1h-1v-1zM15,14h1v1h-1v-1zM18,14h1v1h-1v-1zM25,14h1v1h-1v-1zM26,14h1v1h-1v-1zM28,14h1v1h-1v-1zM7,15h1v1h-1v-1zM8,15h1v1h-1v-1zM9,15h1v1h-1v-1zM10,15h1v1h-1v-1zM13,15h1v1h-1v-1zM14,15h1v1h-1v-1zM16,15h1v1h-1v-1zM17,15h1v1h-1v-1zM18,15h1v1h-1v-1zM20,15h1v1h-1v-1zM21,15h1v1h-1v-1zM22,15h1v1h-1v-1zM23,15h1v1h-1v-1zM25,15h1v1h-1v-1zM26,15h1v1h-1v-1zM27,15h1v1h-1v-1zM28,15h1v1h-1v-1zM4,16h1v1h-1v-1zM6,16h1v1h-1v-1zM10,16h1v1h-1v-1zM12,16h1v1h-1v-1zM18,16h1v1h-1v-1zM19,16h1v1h-1v-1zM20,16h1v1h-1v-1zM22,16h1v1h-1v-1zM24,16h1v1h-1v-1zM25,16h1v1h-1v-1zM27,16h1v1h-1v-1zM0,17h1v1h-1v-1zM3,17h1v1h-1v-1zM5,17h1v1h-1v-1zM8,17h1v1h-1v-1zM9,17h1v1h-1v-1zM11,17h1v1h-1v-1zM14,17h1v1h-1v-1zM20,17h1v1h-1v-1zM22,17h1v1h-1v-1zM23,17h1v1h-1v-1zM26,17h1v1h-1v-1zM0,18h1v1h-1v-1zM1,18h1v1h-1v-1zM4,18h1v1h-1v-1zM6,18h1v1h-1v-1zM7,18h1v1h-1v-1zM9,18h1v1h-1v-1zM13,18h1v1h-1v-1zM16,18h1v1h-1v-1zM17,18h1v1h-1v-1zM22,18h1v1h-1v-1zM26,18h1v1h-1v-1zM27,18h1v1h-1v-1zM1,19h1v1h-1v-1zM2,19h1v1h-1v-1zM4,19h1v1h-1v-1zM7,19h1v1h-1v-1zM8,19h1v1h-1v-1zM9,19h1v1h-1v-1zM12,19h1v1h-1v-1zM14,19h1v1h-1v-1zM15,19h1v1h-1v-1zM16,19h1v1h-1v-1zM17,19h1v1h-1v-1zM18,19h1v1h-1v-1zM19,19h1v1h-1v-1zM22,19h1v1h-1v-1zM23,19h1v1h-1v-1zM24,19h1v1h-1v-1zM28,19h1v1h-1v-1zM1,20h1v1h-1v-1zM2,20h1v1h-1v-1zM5,20h1v1h-1v-1zM6,20h1v1h-1v-1zM7,20h1v1h-1v-1zM10,20h1v1h-1v-1zM11,20h1v1h-1v-1zM12,20h1v1h-1v-1zM14,20h1v1h-1v-1zM16,20h1v1h-1v-1zM20,20h1v1h-1v-1zM21,20h1v1h-1v-1zM22,20h1v1h-1v-1zM23,20h1v1h-1v-1zM24,20h1v1h-1v-1zM26,20h1v1h-1v-1zM28,20h1v1h-1v-1zM8,21h1v1h-1v-1zM9,21h1v1h-1v-1zM11,21h1v1h-1v-1zM14,21h1v1h-1v-1zM16,21h1v1h-1v-1zM20,21h1v1h-1v-1zM24,21h1v1h-1v-1zM25,21h1v1h-1v-1zM26,21h1v1h-1v-1zM0,22h1v1h-1v-1zM1,22h1v1h-1v-1zM2,22h1v1h-1v-1zM3,22h1v1h-1v-1zM4,22h1v1h-1v-1zM5,22h1v1h-1v-1zM6,22h1v1h-1v-1zM11,22h1v1h-1v-1zM12,22h1v1h-1v-1zM13,22h1v1h-1v-1zM14,22h1v1h-1v-1zM19,22h1v1h-1v-1zM20,22h1v1h-1v-1zM22,22h1v1h-1v-1zM24,22h1v1h-1v-1zM27,22h1v1h-1v-1zM28,22h1v1h-1v-1zM0,23h1v1h-1v-1zM6,23h1v1h-1v-1zM9,23h1v1h-1v-1zM10,23h1v1h-1v-1zM11,23h1v1h-1v-1zM12,23h1v1h-1v-1zM13,23h1v1h-1v-1zM15,23h1v1h-1v-1zM20,23h1v1h-1v-1zM24,23h1v1h-1v-1zM26,23h1v1h-1v-1zM27,23h1v1h-1v-1zM0,24h1v1h-1v-1zM2,24h1v1h-1v-1zM3,24h1v1h-1v-1zM4,24h1v1h-1v-1zM6,24h1v1h-1v-1zM8,24h1v1h-1v-1zM9,24h1v1h-1v-1zM10,24h1v1h-1v-1zM13,24h1v1h-1v-1zM14,24h1v1h-1v-1zM15,24h1v1h-1v-1zM17,24h1v1h-1v-1zM18,24h1v1h-1v-1zM20,24h1v1h-1v-1zM21,24h1v1h-1v-1zM22,24h1v1h-1v-1zM23,24h1v1h-1v-1zM24,24h1v1h-1v-1zM26,24h1v1h-1v-1zM28,24h1v1h-1v-1zM0,25h1v1h-1v-1zM2,25h1v1h-1v-1zM3,25h1v1h-1v-1zM4,25h1v1h-1v-1zM6,25h1v1h-1v-1zM11,25h1v1h-1v-1zM13,25h1v1h-1v-1zM16,25h1v1h-1v-1zM18,25h1v1h-1v-1zM19,25h1v1h-1v-1zM20,25h1v1h-1v-1zM21,25h1v1h-1v-1zM22,25h1v1h-1v-1zM24,25h1v1h-1v-1zM27,25h1v1h-1v-1zM0,26h1v1h-1v-1zM2,26h1v1h-1v-1zM3,26h1v1h-1v-1zM4,26h1v1h-1v-1zM6,26h1v1h-1v-1zM8,26h1v1h-1v-1zM9,26h1v1h-1v-1zM10,26h1v1h-1v-1zM13,26h1v1h-1v-1zM14,26h1v1h-1v-1zM15,26h1v1h-1v-1zM17,26h1v1h-1v-1zM19,26h1v1h-1v-1zM20,26h1v1h-1v-1zM26,26h1v1h-1v-1zM27,26h1v1h-1v-1zM0,27h1v1h-1v-1zM6,27h1v1h-1v-1zM8,27h1v1h-1v-1zM9,27h1v1h-1v-1zM13,27h1v1h-1v-1zM17,27h1v1h-1v-1zM20,27h1v1h-1v-1zM23,27h1v1h-1v-1zM26,27h1v1h-1v-1zM0,28h1v1h-1v-1zM1,28h1v1h-1v-1zM2,28h1v1h-1v-1zM3,28h1v1h-1v-1zM4,28h1v1h-1v-1zM5,28h1v1h-1v-1zM6,28h1v1h-1v-1zM8,28h1v1h-1v-1zM11,28h1v1h-1v-1zM12,28h1v1h-1v-1zM13,28h1v1h-1v-1zM14,28h1v1h-1v-1zM15,28h1v1h-1v-1zM18,28h1v1h-1v-1zM23,28h1v1h-1v-1zM24,28h1v1h-1v-1zM25,28h1v1h-1v-1zM26,28h1v1h-1v-1zM27,28h1v1h-1v-1z"/></svg>